<svg width="119" height="64" viewBox="0 0 119 64" fill="none" xmlns="http://www.w3.org/2000/svg">
<g clip-path="url(#clip0_109_92)">
<path d="M29.6112 28.8456C29.0293 28.2715 28.3373 27.8185 27.5351 27.4877C26.7329 27.1575 25.8516 26.9922 24.893 26.9922C23.9345 26.9922 23.0683 27.1658 22.2503 27.5118C21.4323 27.8584 20.7245 28.3305 20.1268 28.9286C19.5291 29.5268 19.0612 30.2314 18.7231 31.0419C18.3844 31.853 18.216 32.7224 18.216 33.6513C18.216 34.5803 18.373 35.4459 18.6877 36.2487C19.0023 37.0516 19.4544 37.7524 20.0445 38.3499C20.6346 38.9488 21.3456 39.4164 22.1794 39.7548C23.0133 40.0931 23.9408 40.2623 24.9633 40.2623C26.379 40.2623 27.5503 39.9949 28.4785 39.4595C29.406 38.9247 30.1924 38.208 30.8376 37.3107L28.1714 35.7526C27.8567 36.2722 27.4401 36.6853 26.921 36.992C26.4018 37.2987 25.7649 37.4527 25.0102 37.4527C24.0662 37.4527 23.276 37.2125 22.6391 36.7328C22.0021 36.2525 21.5735 35.5954 21.3532 34.7609H31.4745V33.5328C31.4745 32.588 31.3092 31.7149 30.9787 30.912C30.6482 30.1091 30.1924 29.421 29.6105 28.8456H29.6112ZM21.4481 32.2104C21.7153 31.455 22.1478 30.8569 22.7454 30.4158C23.3431 29.9754 24.0586 29.7549 24.8924 29.7549C25.7262 29.7549 26.4575 29.964 27.0394 30.381C27.6212 30.7979 28.022 31.4082 28.2423 32.211H21.4475L21.4481 32.2104Z" fill="#234BFF"/>
<path d="M48.3147 37.1922C47.9057 37.1922 47.5714 37.0585 47.3118 36.7911C47.0522 36.5237 46.9224 36.0517 46.9224 35.3743V30.1795H50.2736V27.2513H46.9224V22.5996L43.7137 24.4886V27.2513H41.4774V30.1795H43.7137V35.4921C43.7137 37.2239 44.0828 38.4475 44.8223 39.1642C45.5611 39.8809 46.5995 40.2383 47.9367 40.2383C48.5344 40.2383 49.089 40.1559 49.5999 39.9905C50.1109 39.8251 50.5712 39.5856 50.9802 39.2707L49.4936 36.7202C49.1314 37.0351 48.7389 37.1922 48.314 37.1922H48.3147Z" fill="#234BFF"/>
<path d="M37.5798 27.252V26.638C37.5798 26.15 37.6033 25.7603 37.6507 25.4688C37.6982 25.178 37.8122 24.9492 37.9926 24.7839C38.1731 24.6185 38.4289 24.5088 38.7594 24.4531C39.0899 24.3979 39.5381 24.3701 40.1041 24.3701H40.6467V21.395H39.7977C38.7594 21.395 37.8907 21.4818 37.1905 21.6548C36.4902 21.8284 35.9318 22.1231 35.5152 22.5407C35.0979 22.9576 34.7991 23.5127 34.6187 24.2053C34.4376 24.8985 34.347 25.7635 34.347 26.8027V27.2513H32.1222V30.1795H34.347V40.0025H37.5792V30.1795H39.8097V27.2513H37.5792L37.5798 27.252Z" fill="#234BFF"/>
<path d="M61.5548 33.2376C61.1066 32.9467 60.6108 32.7224 60.0682 32.5646C59.5256 32.4075 58.9868 32.2738 58.4518 32.1635C57.5237 31.9588 56.8082 31.7738 56.3049 31.6084C55.8015 31.443 55.5495 31.156 55.5495 30.7466C55.5495 30.3848 55.7027 30.0895 56.0098 29.8608C56.3163 29.6326 56.7917 29.5186 57.4369 29.5186C58.0346 29.5186 58.5341 29.6364 58.9349 29.8728C59.3357 30.1085 59.67 30.4393 59.9378 30.8645L62.9104 29.6605C62.3127 28.8101 61.589 28.1454 60.74 27.6651C59.891 27.1848 58.7893 26.9446 57.4369 26.9446C56.6506 26.9446 55.9389 27.0511 55.302 27.2634C54.665 27.4757 54.118 27.7633 53.6621 28.1252C53.2057 28.4876 52.8517 28.9122 52.6004 29.4001C52.3484 29.888 52.223 30.4 52.223 30.9348C52.223 31.6122 52.3566 32.1667 52.6238 32.5995C52.891 33.0329 53.2411 33.3903 53.6735 33.6735C54.106 33.9568 54.5935 34.1773 55.1361 34.3344C55.6787 34.4916 56.2175 34.6259 56.7525 34.7355C57.1615 34.8141 57.5464 34.8927 57.9086 34.9713C58.2701 35.0505 58.5886 35.1411 58.864 35.2431C59.1388 35.3457 59.3553 35.4712 59.513 35.6208C59.67 35.7703 59.7491 35.9629 59.7491 36.1993C59.7491 36.577 59.5756 36.9039 59.23 37.1789C58.8836 37.4546 58.3809 37.5921 57.7199 37.5921C56.3359 37.5921 55.3609 37.018 54.7942 35.8685L51.6564 37.0966C52.1597 38.1199 52.8948 38.9031 53.8622 39.4462C54.8297 39.9892 56.0757 40.2611 57.6015 40.2611C58.5291 40.2611 59.3357 40.135 60.0201 39.8834C60.7045 39.6318 61.2744 39.3049 61.7308 38.9038C62.1867 38.5027 62.5248 38.0534 62.7451 37.5579C62.9655 37.0623 63.0756 36.5624 63.0756 36.0586C63.0756 35.3819 62.9338 34.8154 62.6508 34.3585C62.3678 33.9023 62.0018 33.5284 61.5536 33.2369L61.5548 33.2376Z" fill="#234BFF"/>
<path d="M73.1279 34.2647C73.1279 35.2564 72.8759 36.02 72.3726 36.5554C71.8693 37.0909 71.2323 37.3583 70.4618 37.3583C69.5805 37.3583 68.9283 37.0985 68.5035 36.5789C68.0787 36.0592 67.8666 35.3508 67.8666 34.4535V27.252H64.5401V34.9022C64.5401 36.5871 64.9725 37.9013 65.838 38.8455C66.7029 39.7903 67.9217 40.2623 69.495 40.2623C70.2814 40.2623 70.9892 40.0969 71.6185 39.7662C72.2472 39.4354 72.7664 38.9792 73.1754 38.3968V40.0025L76.431 39.9791V27.2285L73.1279 27.252V34.2647Z" fill="#234BFF"/>
<path d="M86.2731 27.1575C85.9034 27.0631 85.5064 27.0156 85.0816 27.0156C84.2636 27.0156 83.5519 27.193 82.9466 27.5472C82.3407 27.9015 81.8811 28.4565 81.5664 29.2119V27.252H78.3577V40.0025H81.5898V33.273C81.5898 32.2028 81.8412 31.4354 82.3445 30.9709C82.8479 30.5071 83.5158 30.2745 84.3497 30.2745C84.7112 30.2745 85.0417 30.3176 85.3405 30.4044C85.6394 30.4912 85.8749 30.5977 86.0484 30.7232L87.2279 27.5118C86.9601 27.3698 86.6416 27.252 86.2725 27.1575H86.2731Z" fill="#234BFF"/>
<path d="M100.207 33.5328C100.207 32.588 100.042 31.7149 99.7114 30.912C99.3809 30.1091 98.9251 29.421 98.3432 28.8456C97.7614 28.2715 97.0694 27.8185 96.2672 27.4877C95.465 27.1575 94.5837 26.9922 93.6251 26.9922C92.6665 26.9922 91.8004 27.1658 90.9824 27.5118C90.1644 27.8584 89.4565 28.3305 88.8588 28.9286C88.2612 29.5268 87.7933 30.2314 87.4552 31.0419C87.1164 31.853 86.948 32.7224 86.948 33.6513C86.948 34.5803 87.1051 35.4459 87.4197 36.2487C87.7344 37.0516 88.1864 37.7524 88.7765 38.3499C89.3666 38.9488 90.0776 39.4164 90.9115 39.7548C91.7453 40.0931 92.6729 40.2623 93.6954 40.2623C95.1111 40.2623 96.2824 39.9949 97.2105 39.4595C98.1381 38.9247 98.9245 38.208 99.5696 37.3107L96.9035 35.7526C96.5888 36.2722 96.1722 36.6853 95.653 36.992C95.1339 37.2987 94.4969 37.4527 93.7422 37.4527C92.7982 37.4527 92.0081 37.2125 91.3711 36.7328C90.7342 36.2525 90.3056 35.5954 90.0852 34.7609H100.207V33.5328H100.207ZM90.3682 32.2104C90.6354 31.455 91.0679 30.8569 91.6655 30.4158C92.2632 29.9754 92.9787 29.7549 93.8125 29.7549C94.6463 29.7549 95.3776 29.964 95.9595 30.381C96.5413 30.7979 96.9421 31.4082 97.1624 32.211H90.3676L90.3682 32.2104Z" fill="#234BFF"/>
</g>
<defs>
<clipPath id="clip0_109_92">
<rect width="86.4865" height="32" fill="white" transform="translate(16 16)"/>
</clipPath>
</defs>
</svg>
